<svg width="800" height="600" xmlns="http://www.w3.org/2000/svg">
 <g>
  <title>Layer 1</title>
  <path id="svg_2" d="m-14,-15l888,0l0,630l-888,0l0,-630z" opacity="undefined" stroke="#000" fill="#212121"/>
  <path stroke-width="0" fill="#1f5054" stroke="#000" opacity="NaN" d="m334,-146c19,594 -70,584 13,637c83,53 607,-46 609,-78c2,-32 -81,-569 -81,-569c0,0 -560,-584 -541,10z" id="svg_12"/>
  <path stroke-width="0" fill="#4cff00" opacity="NaN" d="m469.41948,-232.23943c0,0 -76.38445,235.91627 21.31659,320.42359c97.70103,84.50732 262.9046,-47.53537 174.08548,153.16952c-88.81912,200.70488 190.07292,88.02846 190.07292,88.02846c0,0 7.10553,-563.38213 7.10553,-563.38213c0,0 -392.58052,1.76057 -392.58052,1.76057l0,-0.00001z" id="svg_1" stroke="#000"/>
  <path fill="#0fffff" stroke="#000" fill-opacity="0" opacity="NaN" d="m492,372" id="svg_11"/>
  <path stroke-width="0" fill="#171a38" stroke="#000" opacity="NaN" d="m228,-17c0,1 -8,274 -9,274c-1,0 -23,356 -208,49l-185,-307c402,-15 333,-53 333,-53c0,0 69,36 69,37z" id="svg_13"/>
 </g>

</svg>