<svg width="800" height="600" xmlns="http://www.w3.org/2000/svg">
 <g>
  <title>Layer 1</title>
  <rect fill="#e1c5c1" stroke="#000" x="-14" y="-15" width="888" height="630" id="svg_2"/>
  <path id="svg_12" d="m306,-97c19,594 -70,584 13,637c83,53 607,-46 609,-78c2,-32 -81,-569 -81,-569c0,0 -560,-584 -541,10z" opacity="NaN" stroke="#000" fill="#c18e60" stroke-width="0"/>
  <path stroke="#000" id="svg_1" d="m438.41948,-154.23943c0,0 -76.38445,235.91627 21.31659,320.42359c97.70103,84.50732 262.9046,-47.53537 174.08548,153.16952c-88.81912,200.70488 190.07292,88.02846 190.07292,88.02846c0,0 7.10553,-563.38213 7.10553,-563.38213c0,0 -392.58052,1.76057 -392.58052,1.76057l0,-0.00001z" opacity="NaN" fill="#000000"/>
  <path id="svg_11" d="m492,372" opacity="NaN" fill-opacity="0" stroke="#000" fill="#0fffff"/>
  <path id="svg_13" d="m231,-15c0,1 -8,274 -9,274c-1,0 -23,356 -208,49l-185,-307c402,-15 333,-53 333,-53c0,0 69,36 69,37z" opacity="NaN" stroke="#000" fill="#246a5c" stroke-width="0"/>
 </g>

</svg>